<svg xmlns="http://www.w3.org/2000/svg" xmlns:xlink="http://www.w3.org/1999/xlink" width="292.316" height="315.651" viewBox="0 0 292.316 315.651"><defs><clipPath id="a"><rect width="292.316" height="315.651" fill="none"/></clipPath></defs><g transform="translate(41 -1004.718)" opacity="0.15"><g transform="translate(-41 1004.718)"><g transform="translate(0 0)" clip-path="url(#a)"><path d="M124.074,71.687A56.851,56.851,0,1,1,67.225,14.839a56.848,56.848,0,0,1,56.848,56.848" transform="translate(53.065 75.927)" fill="#1e4e79"/><path d="M69.16,33.073A33.076,33.076,0,1,1,36.087,0,33.074,33.074,0,0,1,69.16,33.073" transform="translate(15.391 0.001)" fill="#1e4e79"/><path d="M103.127,46.858A33.076,33.076,0,1,1,70.054,13.791a33.074,33.074,0,0,1,33.073,33.067" transform="translate(189.189 70.565)" fill="#1e4e79"/><path d="M83.143,73.863A33.076,33.076,0,1,1,50.07,40.79,33.074,33.074,0,0,1,83.143,73.863" transform="translate(86.937 208.71)" fill="#1e4e79"/><path d="M69.77,26.914A23.925,23.925,0,1,1,45.847,2.992,23.922,23.922,0,0,1,69.77,26.914" transform="translate(112.152 15.31)" fill="#1e4e79"/><path d="M45.367,47.291A22.684,22.684,0,1,1,22.681,24.6,22.686,22.686,0,0,1,45.367,47.291" transform="translate(0 125.892)" fill="#1e4e79"/><path d="M72.309,50.465A21.131,21.131,0,1,1,51.176,29.1,21.251,21.251,0,0,1,72.309,50.465" transform="translate(153.751 148.896)" fill="#1e4e79"/><line y1="105.39" x2="37.709" transform="translate(120.286 42.225)" fill="none" stroke="#1e4e79" stroke-miterlimit="10" stroke-width="2"/><line x2="69.29" y2="113.201" transform="translate(51.474 33.075)" fill="none" stroke="#1e4e79" stroke-miterlimit="10" stroke-width="2"/><line y1="25.568" x2="97.604" transform="translate(22.685 147.618)" fill="none" stroke="#1e4e79" stroke-miterlimit="10" stroke-width="2"/><line x1="16.723" y1="134.964" transform="translate(120.285 147.612)" fill="none" stroke="#1e4e79" stroke-miterlimit="10" stroke-width="2"/><line x1="64.519" y1="39.758" transform="translate(142.609 156.025)" fill="none" stroke="#1e4e79" stroke-miterlimit="10" stroke-width="2"/><line y1="30.186" x2="138.958" transform="translate(120.286 117.429)" fill="none" stroke="#1e4e79" stroke-miterlimit="10" stroke-width="2"/></g></g></g></svg>