<svg xmlns="http://www.w3.org/2000/svg" width="69" height="69" viewBox="0 0 69 69"><g transform="translate(-575 -442)"><g transform="translate(580 447)" fill="#313133" stroke="#fff" stroke-width="5"><circle cx="29.5" cy="29.5" r="29.5" stroke="none"/><circle cx="29.5" cy="29.5" r="32" fill="none"/></g><g transform="translate(596.121 463.459)"><g transform="translate(0 1.681)"><g transform="translate(0 0)"><path d="M21.695,51.218a1.355,1.355,0,0,0-1.356,1.356v4.259a1.356,1.356,0,0,1-1.356,1.356H4.068a1.356,1.356,0,0,1-1.356-1.356V39.206A1.356,1.356,0,0,1,4.068,37.85h7.878a1.356,1.356,0,0,0,0-2.712H4.068A4.073,4.073,0,0,0,0,39.206V56.833A4.073,4.073,0,0,0,4.068,60.9H18.983a4.072,4.072,0,0,0,4.068-4.068V52.574A1.355,1.355,0,0,0,21.695,51.218Z" transform="translate(0 -35.138)" fill="#fff"/></g></g><g transform="translate(7.81 0)"><g transform="translate(0 0)"><path d="M161.851,5.8a5.219,5.219,0,0,0-7.329-.012l-9.18,9.18A7.076,7.076,0,0,0,143.265,20v3.037a1.355,1.355,0,0,0,1.356,1.356h3.037a7.077,7.077,0,0,0,5.026-2.079l9.167-9.167A5.2,5.2,0,0,0,161.851,5.8ZM150.769,20.393a4.381,4.381,0,0,1-3.111,1.285h-1.681V20a4.38,4.38,0,0,1,1.284-3.109l6.052-6.052,3.506,3.506Zm9.165-9.165-1.2,1.2L155.23,8.919l1.2-1.2a2.479,2.479,0,0,1,3.506,3.506Z" transform="translate(-143.265 -4.296)" fill="#fff"/></g></g></g></g></svg>