<?xml version="1.0"?><svg width="136.484" height="135.994" xmlns="http://www.w3.org/2000/svg">

 <g>
  <title>Layer 1</title>
  <g id="g3">
   <path fill="#ff0000" id="path5" d="m52.021,131.806c0,2.604996 28.656002,1.382004 31.602001,0.817001c4.888,-0.934998 -9.083,-3.121994 -10.272003,-3.175995c-1.908997,-0.085007 -21.332996,-0.904007 -21.329998,2.358994"/>
   <radialGradient fill="#ff0000" r="105.1645" id="XMLID_2_" gradientUnits="userSpaceOnUse" cy="36.1948" cx="52.4082">
    <stop fill="#ff0000" stop-color="#D1F593" offset="0" id="stop8"/>
    <stop fill="#ff0000" stop-color="#81CE09" offset="1" id="stop10"/>
   </radialGradient>
   <path fill="#ff0000" id="path12" d="m88.759003,126.635002c0,-8.091003 0,-16.184006 0,-24.274002c0,-4.036003 0,-8.070999 0,-12.105003c0,-2.349998 1.352997,-1.481995 3.598999,-1.481995c9.931,0 19.863998,0 29.796997,-0.001999c3.058998,0 6.410004,0.398994 9.089005,-1.409004c4.130997,-2.791 3.639999,-7.449997 3.639999,-11.764999c0,-6.669998 2.960999,-22.257999 -3.643005,-26.718998c-5.770996,-3.898003 -18.466995,-1.411003 -24.899994,-1.411003c-2.933006,0 -17.579002,1.794003 -17.579002,-1.482998c0,-9.625 0,-19.249001 -0.001999,-28.873001c0,-7.948 -0.023003,-15.768 -10.348999,-15.768c-4.741005,0 -9.482002,0 -14.226006,0c-3.512997,0 -8.331997,-0.769 -11.683998,0.65c-7.721001,3.266 -5.047001,17.326 -5.047001,23.847c0,1.712 0.272003,21.626999 -0.248997,21.626999c-8.859001,0 -17.717001,0 -26.576002,0c-7.028,0 -19.301,-1.939999 -19.299,8.622002c0,8.109997 0.001,16.220997 0.001,24.330997c0,10.633003 13.667,8.354004 20.558,8.354004c2.072001,0 25.564999,-0.266998 25.564999,0.25c0,10.035995 0.001003,20.070999 0.001003,30.105995c0,3.248001 -0.659,7.626007 0.647999,10.721008c2.284,5.404999 7.695999,5.04599 12.526001,5.04599c7.360996,-0.001999 28.134998,3.730011 28.130001,-8.262993"/>
   <path fill="#ff0000" id="path14" d="m7.252,52.400002c2.606,0 1.384,28.655998 0.819,31.602997c-0.938,4.889 -3.124,-9.083 -3.178,-10.270996c-0.085,-1.907005 -0.902,-21.335003 2.359,-21.332001"/>
   <path fill="#ff0000" id="path16" d="m131.423996,52.400002c2.605011,0 1.38501,28.655998 0.820999,31.602997c-0.937988,4.889 -3.125992,-9.083 -3.179993,-10.270996c-0.085007,-1.907005 -0.899002,-21.335003 2.358994,-21.332001"/>
   <path fill="#ff0000" id="path18" d="m52.522999,84.487c2.662003,0.002998 1.336002,41.25 0.805,45.052994c-0.355,2.529007 -1.285999,2.272003 -1.820999,-0.050995c-1.221001,-5.300995 -1.266998,-10.990997 -1.389999,-16.400002c-0.050999,-2.196999 -0.788002,-28.604996 2.405998,-28.601997"/>
   <path fill="#ff0000" id="path20" d="m90.714996,52.665001c0,2.654999 35.874001,1.288998 39.165009,0.885998c1.559998,-0.191998 3.560989,-0.982998 0.97699,-1.774998c-4.488998,-1.373001 -9.611992,-1.360001 -14.253998,-1.5c-2.091995,-0.063 -25.888,-0.848 -25.888,2.389"/>
   <path fill="#ff0000" id="path22" d="m7.252,52.400002c0.003,-2.251003 42.617999,-1.799 42.620002,0.000999c0,1.924999 -42.614002,5.578999 -42.620002,-0.000999"/>
   <path fill="#ff0000" id="path24" d="m52.021,7.633c0,2.606 28.656002,1.382 31.602001,0.818c4.887001,-0.935 -9.083,-3.123 -10.273003,-3.177c-1.907997,-0.085 -21.331997,-0.903 -21.328999,2.359"/>
   <path fill="#ff0000" id="path26" d="m52.021,7.633c-2.248001,0 -1.804001,42.302001 -0.000999,42.302001c1.959999,0.000999 5.558998,-42.302001 0.000999,-42.302001"/>
   <path fill="#ff0000" id="path28" d="m84.795998,6.671c-2.251999,0 -1.262001,24.248001 -1.251999,26.234998c0.017998,3.709003 -0.438995,8.161003 0.687004,11.765003c0.867996,2.779999 2.253998,-4.511002 2.306999,-4.922001c0.424995,-3.336002 3.335999,-33.084001 -1.742004,-33.078001"/>
   <path fill="#ff0000" id="path30" d="m84.794998,85.795998c-1.947998,-0.004997 -1.255997,23.107002 -1.255997,25.114006c0,5.747993 -0.266998,11.603996 0.326996,17.332001c0.328003,3.175003 1.466003,3.463989 2.171005,0.210999c0.701996,-3.228004 3.571999,-42.667999 -1.242004,-42.657005"/>
   <path fill="#ff0000" id="path32" d="m7.702,83.764999c-0.003,-2.246002 24.25,-1.262001 26.234001,-1.25c3.710999,0.017998 8.161999,-0.439003 11.764999,0.684998c2.782001,0.868004 -4.512001,2.256004 -4.920002,2.308006c-3.334,0.423996 -33.089998,3.328995 -33.078998,-1.743004"/>
   <path fill="#ff0000" id="path34" d="m87,83.768997c-0.001999,-1.971001 22.219002,-1.260994 24.127998,-1.260994c5.747002,0 11.603004,-0.263 17.332008,0.329994c3.172989,0.328003 3.464996,1.465004 0.21199,2.172005c-3.237,0.702995 -41.671997,3.653999 -41.671997,-1.241005"/>
   <path fill="#ff0000" id="path36" d="m87.033997,3.068c-4.524994,-4.524 -14.503998,-2.708 -20.251999,-2.708c-6.961998,0 -18.206997,-1.921 -20.119999,7.384c-1.218998,5.928 -0.188,12.916 -0.188,18.911001c0,6.610998 0,13.221998 0,19.831999c-8.833,-0.007999 -17.664999,-0.000999 -26.498999,0c-7.965,0 -19.625,-1.492001 -19.625,10.034c0,7.876003 -0.785,16.157001 0,23.991001c0,11.919998 15.899001,9.242996 23.558001,9.242996c2.705,0 22.568001,-1.096001 22.568001,0.987c0,9.688004 0,19.378006 0,29.068001c0,8.969009 1.343998,16.06601 12.167,16.06601c4.876999,0 9.755001,0 14.632,0c3.908997,0.001999 8.924995,0.744995 12.348999,-1.544006c6.667,-4.459 4.117996,-18.014999 4.117996,-24.75c0,-5.028 0,-10.056 0,-15.085999c0,-3.111 -1.062996,-4.742004 2.208,-4.742004c9.972,0 19.946007,0 29.917,0c3.367004,0 6.974998,0.410004 9.920006,-1.581001c4.464005,-3.016998 4.080002,-7.903 4.080002,-12.575996c0,-7.165001 2.960999,-22.769001 -4.080002,-27.529999c-2.945007,-1.993999 -6.556999,-1.582001 -9.920006,-1.582001c-5.478996,0 -10.955994,0 -16.435997,0c-4.494003,0 -8.987,0 -13.481003,0c-3.270996,0 -2.208,-1.632999 -2.208,-4.743c0,-9.967001 0,-19.933001 0,-29.899c-0.000999,-3.237 -0.230995,-6.299 -2.708,-8.775m-84.720997,77.443002c0,-7.999001 -0.001,-15.994003 -0.001,-23.993c0,-10.355003 12.502,-8.07 19.41,-8.07c8.823999,0 17.646999,0 26.470001,0c0.509998,0 0.243999,-19.771002 0.243999,-21.453001c0,-5.939001 -2.714001,-20.589001 4.082001,-23.931001c2.917999,-1.435 7.306,-0.742 10.421997,-0.742c5.158001,0.002 10.313999,0.003 15.471004,0.003c10.645996,0 9.367996,9.181 9.367996,16.95c0,9.408001 0,18.816999 0,28.226999c0,3.364002 37.980003,-1.799 43.394997,2.547001c5.699997,4.577999 2.729004,20.287998 2.729004,26.59c0,4.008003 0.199997,8.305 -4.082993,10.410004c-2.694008,1.322998 -6.632004,0.740997 -9.521004,0.740997c-9.923004,0 -19.847,0 -29.768005,0c-2.087997,0 -2.752998,-0.648003 -2.752998,1.454002c0,4.421997 0,8.844994 0,13.267998c0,7.826996 0.983002,16.350998 0,24.124001c0,10.686005 -19.483002,7.276993 -26.028,7.276993c-4.355999,-0.001999 -9.752998,0.843002 -12.347,-3.644989c-1.584999,-2.744003 -0.966999,-6.932007 -0.966999,-9.959007c0,-10.355995 0,-20.711998 0,-31.064995c0.000999,-6.973 -46.136001,7.243996 -46.123001,-8.733002"/>
  </g>
 </g>
</svg>