<svg xmlns="http://www.w3.org/2000/svg" xmlns:xlink="http://www.w3.org/1999/xlink" width="457.358" height="463" viewBox="0 0 457.358 463"><defs><clipPath id="a"><rect width="457.358" height="463" fill="none"/></clipPath></defs><g clip-path="url(#a)"><path d="M45.682,34.15A17.488,17.488,0,1,1,28.194,16.662,17.49,17.49,0,0,1,45.682,34.15" transform="translate(64.424 100.267)" fill="#1e4e79"/><path d="M70.427,48.432A17.488,17.488,0,1,1,52.939,30.944,17.491,17.491,0,0,1,70.427,48.432" transform="translate(213.33 186.21)" fill="#1e4e79"/><path d="M95.165,62.715A17.488,17.488,0,1,1,77.677,45.227,17.49,17.49,0,0,1,95.165,62.715" transform="translate(362.193 272.159)" fill="#1e4e79"/><path d="M37.444,48.432A17.488,17.488,0,1,1,19.956,30.944,17.491,17.491,0,0,1,37.444,48.432" transform="translate(14.851 186.21)" fill="#1e4e79"/><circle cx="24.393" cy="24.393" r="24.393" transform="translate(68.229 310.478)" fill="none" stroke="#1e4e79" stroke-miterlimit="10" stroke-width="1"/><circle cx="24.393" cy="24.393" r="24.393" transform="translate(184.015 110.024)" fill="none" stroke="#1e4e79" stroke-miterlimit="10" stroke-width="1"/><circle cx="24.393" cy="24.393" r="24.393" transform="translate(3.509 3.51)" fill="none" stroke="#1e4e79" stroke-miterlimit="10" stroke-width="1"/><circle cx="24.393" cy="24.393" r="24.393" transform="translate(357.614 210.251)" fill="none" stroke="#1e4e79" stroke-miterlimit="10" stroke-width="1"/><circle cx="24.393" cy="24.393" r="24.393" transform="translate(357.54 410.705)" fill="none" stroke="#1e4e79" stroke-miterlimit="10" stroke-width="1"/><circle cx="24.393" cy="24.393" r="24.393" transform="translate(241.879 410.705)" fill="none" stroke="#1e4e79" stroke-miterlimit="10" stroke-width="1"/><circle cx="24.393" cy="24.393" r="24.393" transform="translate(184.015 310.478)" fill="none" stroke="#1e4e79" stroke-miterlimit="10" stroke-width="1"/><path d="M57.543,92.809,48.561,77.861,5.823,6.913" transform="translate(35.043 41.603)" fill="none" stroke="#1e4e79" stroke-miterlimit="10" stroke-width="1"/></g></svg>