<svg xmlns="http://www.w3.org/2000/svg" width="203" height="199" viewBox="0 0 203 199"><g transform="translate(-441 -442)"><g transform="translate(441 444)" fill="#fff" stroke="#e50019" stroke-width="10"><circle cx="98.5" cy="98.5" r="98.5" stroke="none"/><circle cx="98.5" cy="98.5" r="93.5" fill="none"/></g><g transform="translate(476 471)"><g transform="translate(26.882)"><path d="M147.919,0a37.128,37.128,0,1,0,37.128,37.128A37.226,37.226,0,0,0,147.919,0Z" transform="translate(-110.791)" fill="#313133"/></g><g transform="translate(0 76.912)"><path d="M151.891,274.855a34.619,34.619,0,0,0-3.729-6.81,46.149,46.149,0,0,0-31.939-20.1,6.834,6.834,0,0,0-4.7,1.135,39.575,39.575,0,0,1-46.693,0,6.083,6.083,0,0,0-4.7-1.135,45.814,45.814,0,0,0-31.939,20.1,39.913,39.913,0,0,0-3.729,6.81,3.448,3.448,0,0,0,.162,3.081A64.7,64.7,0,0,0,29,284.421a61.624,61.624,0,0,0,7.458,8.431,97.179,97.179,0,0,0,7.458,6.485,73.934,73.934,0,0,0,88.2,0,71.275,71.275,0,0,0,7.458-6.485,74.883,74.883,0,0,0,7.458-8.431,56.861,56.861,0,0,0,4.377-6.485A2.767,2.767,0,0,0,151.891,274.855Z" transform="translate(-24.165 -247.841)" fill="#313133"/></g></g><g transform="translate(580 447)" fill="#313133" stroke="#fff" stroke-width="5"><circle cx="29.5" cy="29.5" r="29.5" stroke="none"/><circle cx="29.5" cy="29.5" r="32" fill="none"/></g><g transform="translate(596.121 463.459)"><g transform="translate(0 1.681)"><g transform="translate(0 0)"><path d="M21.695,51.218a1.355,1.355,0,0,0-1.356,1.356v4.259a1.356,1.356,0,0,1-1.356,1.356H4.068a1.356,1.356,0,0,1-1.356-1.356V39.206A1.356,1.356,0,0,1,4.068,37.85h7.878a1.356,1.356,0,0,0,0-2.712H4.068A4.073,4.073,0,0,0,0,39.206V56.833A4.073,4.073,0,0,0,4.068,60.9H18.983a4.072,4.072,0,0,0,4.068-4.068V52.574A1.355,1.355,0,0,0,21.695,51.218Z" transform="translate(0 -35.138)" fill="#fff"/></g></g><g transform="translate(7.81 0)"><g transform="translate(0 0)"><path d="M161.851,5.8a5.219,5.219,0,0,0-7.329-.012l-9.18,9.18A7.076,7.076,0,0,0,143.265,20v3.037a1.355,1.355,0,0,0,1.356,1.356h3.037a7.077,7.077,0,0,0,5.026-2.079l9.167-9.167A5.2,5.2,0,0,0,161.851,5.8ZM150.769,20.393a4.381,4.381,0,0,1-3.111,1.285h-1.681V20a4.38,4.38,0,0,1,1.284-3.109l6.052-6.052,3.506,3.506Zm9.165-9.165-1.2,1.2L155.23,8.919l1.2-1.2a2.479,2.479,0,0,1,3.506,3.506Z" transform="translate(-143.265 -4.296)" fill="#fff"/></g></g></g></g></svg>