<svg xmlns="http://www.w3.org/2000/svg" xmlns:xlink="http://www.w3.org/1999/xlink" width="618.297" height="88.927" viewBox="0 0 618.297 88.927"><defs><clipPath id="a"><rect width="618.297" height="88.927" fill="none"/></clipPath></defs><g transform="translate(-230.949 -152.037)"><g transform="translate(230.949 152.037)"><g clip-path="url(#a)"><path d="M75.579,87.473H56.44L31.572,58.948H16.091V87.473H0V2.02c13.531,0,27.062.122,40.593.122,20.114.122,30.719,13.531,30.719,28.281,0,11.7-5.363,23.527-21.577,26.819L75.579,86.376ZM16.091,17.136V44.442h24.5c10.239,0,14.628-6.827,14.628-13.653s-4.51-13.653-14.628-13.653Z" transform="translate(0 -0.467)" fill="#313133"/><path d="M300.534,26.925c0,6.583-3.17,12.922-11.094,16.457,10,3.048,13.653,13.653,13.653,19.016,0,19.016-14.262,25.112-31.937,25.112H230.684V2.179h40.472c16.822,0,29.378,7.558,29.378,24.746m-54,9.508h24.624c10.117,0,13.409-4.266,13.409-9.143,0-3.9-3.169-10.482-13.409-10.482H246.531Zm0,36.083h24.624c6.582,0,15.969-2.194,15.969-10.239,0-7.68-9.387-11.7-15.969-11.7H246.531Z" transform="translate(-53.325 -0.504)" fill="#313133"/><path d="M540.2,25.742,512.41,62.8h-3.169L482.057,25.62V87.668H465.966V2.337H484.5l26.7,36.692,26.7-36.692h18.407V87.668H540.2Z" transform="translate(-107.714 -0.54)" fill="#313133"/><path d="M738.349,2.978h-33.66V27.885h16.034V18.278h17.626c18.6,0,26.436,13.341,26.8,26.682.367,13.953-7.344,28.151-26.8,28.151H720.723V64.989H704.689V88.655h33.66c29.986,0,43.2-21.909,42.837-43.573-.367-21.175-13.463-42.1-42.837-42.1" transform="translate(-162.898 -0.688)" fill="#313133"/><path d="M713.891,50.855V39.884h-7.934V50.851l-10.727,0,0,7.849,10.731.005V69.672h7.934V58.7l10.727.005,0-7.851Z" transform="translate(-160.71 -9.22)" fill="#e50019"/><path d="M666.669,17.782V2.179H602.793v15.6h63.876Z" transform="translate(-139.343 -0.504)" fill="#e50019"/><path d="M602.793,47.779V98.051h63.876V82.2H618.761V62.943h46.2V47.949h-46.2v-.171Z" transform="translate(-139.343 -11.045)" fill="#313133"/><path d="M395.823,0V14.642c18.811.92,26.376,16.478,26.139,30.431-.237,13.6-7.356,28.226-26.139,29.092V88.927c28.745-.856,41.747-22.475,41.986-44.1C438.048,22.975,424.012.892,395.823,0" transform="translate(-91.499)" fill="#e50019"/><path d="M352.281,45.258c-.333-13.078,6.492-27.664,22.85-30.206V.277c-26,2.485-38.7,23.664-38.7,44.737,0,21.094,12.291,41.43,38.7,43.778V73.906C358.889,71.543,352.613,58,352.281,45.258" transform="translate(-77.771 -0.064)" fill="#313133"/><path d="M162.487,0V14.642c18.811.92,26.376,16.478,26.139,30.431-.237,13.6-7.356,28.226-26.139,29.092V88.927c28.745-.856,41.747-22.475,41.986-44.1C204.712,22.975,190.676.892,162.487,0" transform="translate(-37.561)" fill="#e50019"/><path d="M118.945,45.258c-.332-13.078,6.492-27.664,22.851-30.206V.277c-26,2.485-38.7,23.664-38.7,44.737,0,21.094,12.292,41.43,38.7,43.778V73.906C125.554,71.543,119.277,58,118.945,45.258" transform="translate(-23.832 -0.064)" fill="#313133"/></g></g></g></svg>