<svg xmlns="http://www.w3.org/2000/svg" xmlns:xlink="http://www.w3.org/1999/xlink" width="26.426" height="25.971" viewBox="0 0 26.426 25.971"><defs><clipPath id="a"><rect width="26.426" height="25.971" fill="none"/></clipPath></defs><g clip-path="url(#a)"><path d="M42.359,0H32.718A1.948,1.948,0,0,0,30.77,1.948V4.892h1.461V1.948a.487.487,0,0,1,.487-.487h7.891V5.866A3.762,3.762,0,0,0,44.37,9.628h4.419v3H50.25V7.891ZM44.37,8.167a2.3,2.3,0,0,1-2.3-2.3V1.784l6.384,6.384Z" transform="translate(-27.773)" fill="#7985af"/><path d="M32.718,152.734a.487.487,0,0,1-.487-.487V144.16H30.77v8.087a1.948,1.948,0,0,0,1.948,1.948H46.333l-1.289-1.461Z" transform="translate(-27.773 -130.117)" fill="#7985af"/><path d="M11.783,61v5.644a.78.78,0,0,1-.779.779H.779A.78.78,0,0,1,0,66.644V61a.779.779,0,0,1,.779-.779H11a.779.779,0,0,1,.779.779" transform="translate(0 -54.354)" fill="#ea0001"/><path d="M20.678,79.945a1.06,1.06,0,0,0-.253-.348,1.15,1.15,0,0,0-.377-.227,1.329,1.329,0,0,0-.466-.08H18.355v3.487h.658V81.5h.57a1.329,1.329,0,0,0,.466-.081,1.147,1.147,0,0,0,.377-.226,1.1,1.1,0,0,0,.253-1.245m-.7.782a.5.5,0,0,1-.39.146h-.58v-.96h.58a.606.606,0,0,1,.229.039.482.482,0,0,1,.164.1.419.419,0,0,1,.1.154.52.52,0,0,1,.031.18.488.488,0,0,1-.132.336" transform="translate(-16.567 -71.566)" fill="#fff"/><path d="M48.8,80.327a1.565,1.565,0,0,0-.358-.553,1.613,1.613,0,0,0-.565-.358,2.062,2.062,0,0,0-.745-.127H45.955v3.487h1.179a2.062,2.062,0,0,0,.745-.127,1.623,1.623,0,0,0,.565-.356,1.536,1.536,0,0,0,.358-.55,2.092,2.092,0,0,0,0-1.417M48.2,81.494a.928.928,0,0,1-.219.354.988.988,0,0,1-.365.226,1.466,1.466,0,0,1-.507.081h-.492V79.913H47.1a1.467,1.467,0,0,1,.507.08.99.99,0,0,1,.365.227.932.932,0,0,1,.219.353,1.486,1.486,0,0,1,0,.921" transform="translate(-41.478 -71.566)" fill="#fff"/><path d="M82.116,79.913V79.29H79.905v3.487h.658V81.384h1.4v-.623h-1.4v-.848Z" transform="translate(-72.121 -71.566)" fill="#fff"/><path d="M184.441,147.124l-4.192,4.754a.486.486,0,0,1-.731,0L178,150.152l-1.289-1.461-1.381-1.566a.487.487,0,0,1,.365-.809h1.26v-6.149a.487.487,0,0,1,.487-.487h4.89a.487.487,0,0,1,.487.487v6.149h1.26a.487.487,0,0,1,.365.809" transform="translate(-158.137 -126.073)" fill="#ea0001"/></g></svg>