<svg xmlns="http://www.w3.org/2000/svg" width="235.718" height="237.617" viewBox="0 0 235.718 237.617"><g transform="translate(0 0.04)"><g transform="translate(0 -0.04)"><path d="M73.611,0H0V73.611H73.611ZM58.889,58.889H14.722V14.722H58.889Z" transform="translate(0 0.162)" fill="#313133"/><rect width="12.291" height="12.291" transform="translate(30.876 28.678)" fill="#313133"/><path d="M352,0V73.611h73.611V0Zm58.889,58.889H366.722V14.722h44.167Z" transform="translate(-190.055 0.162)" fill="#313133"/><rect width="12.291" height="12.291" transform="translate(194.75 28.678)" fill="#313133"/><path d="M0,425.611H73.611V352H0Zm14.722-58.889H58.889v44.167H14.722Z" transform="translate(0 -189.893)" fill="#313133"/><rect width="12.291" height="16.387" transform="translate(30.876 192.551)" fill="#313133"/><rect width="32.775" height="12.291" transform="translate(116.91)" fill="#313133"/><path d="M221.444,76.167h14.722V61.445h14.722V46.722H206.722V32H192V61.445h29.444Z" transform="translate(-103.667 -17.116)" fill="#313133"/><rect width="12.291" height="16.387" transform="translate(88.232 57.356)" fill="#313133"/><path d="M250.889,160H236.167v14.722H192v14.722h58.889Z" transform="translate(-103.667 -86.227)" fill="#313133"/><path d="M14.722,236.167H29.445V221.444H14.722V192H0v58.889H14.722Z" transform="translate(0 -103.504)" fill="#313133"/><rect width="12.291" height="12.291" transform="translate(30.876 90.13)" fill="#313133"/><path d="M140.167,250.889h29.445V236.167H154.889V221.444H125.445V192H110.722v29.444H96v29.445h14.722V236.167h29.445Z" transform="translate(-51.833 -103.504)" fill="#313133"/><rect width="16.387" height="28.678" transform="translate(133.297 118.808)" fill="#313133"/><path d="M236.167,352H192v14.722h29.444v44.167H192v14.722h44.167V410.889h29.444V396.167H236.167Z" transform="translate(-103.667 -189.893)" fill="#313133"/><rect width="12.291" height="16.387" transform="translate(88.232 192.551)" fill="#313133"/><rect width="12.291" height="28.678" transform="translate(149.685 163.873)" fill="#313133"/><path d="M428.167,416H384v44.167h14.722V430.722h29.444Z" transform="translate(-207.333 -224.449)" fill="#313133"/><rect width="28.678" height="16.387" transform="translate(207.04 221.229)" fill="#313133"/><rect width="12.291" height="12.291" transform="translate(223.428 163.873)" fill="#313133"/><path d="M366.722,332.167h14.722V288H352v14.722h14.722Z" transform="translate(-190.055 -155.338)" fill="#313133"/><path d="M396.167,206.722H381.445V192H366.722v14.722H352v14.722h58.889V206.722h14.722V192H396.167Z" transform="translate(-190.055 -103.504)" fill="#313133"/><rect width="28.678" height="12.291" transform="translate(207.04 135.196)" fill="#313133"/></g></g></svg>